<?xml version="1.0" encoding="UTF-8" standalone="no"?>
<!-- Created with Inkscape (http://www.inkscape.org/) -->

<svg
   version="1.1"
   id="svg1"
   width="600"
   height="600"
   viewBox="0 0 600 600"
   sodipodi:docname="Logo V.svg"
   xml:space="preserve"
   inkscape:version="1.3.2 (091e20ef0f, 2023-11-25)"
   xmlns:inkscape="http://www.inkscape.org/namespaces/inkscape"
   xmlns:sodipodi="http://sodipodi.sourceforge.net/DTD/sodipodi-0.dtd"
   xmlns="http://www.w3.org/2000/svg"
   xmlns:svg="http://www.w3.org/2000/svg"><defs
     id="defs1" /><sodipodi:namedview
     id="namedview1"
     pagecolor="#000000"
     bordercolor="#000000"
     borderopacity="0.25"
     inkscape:showpageshadow="2"
     inkscape:pageopacity="0.0"
     inkscape:pagecheckerboard="0"
     inkscape:deskcolor="#d1d1d1"
     showguides="true"
     inkscape:zoom="0.52050916"
     inkscape:cx="483.18074"
     inkscape:cy="282.41578"
     inkscape:window-width="1422"
     inkscape:window-height="734"
     inkscape:window-x="0"
     inkscape:window-y="0"
     inkscape:window-maximized="1"
     inkscape:current-layer="g1"><sodipodi:guide
       position="300,300"
       orientation="0,1"
       id="guide1"
       inkscape:locked="false"
       inkscape:label=""
       inkscape:color="rgb(0,134,229)" /><sodipodi:guide
       position="300,300"
       orientation="-1,0"
       id="guide2"
       inkscape:locked="false"
       inkscape:label=""
       inkscape:color="rgb(0,134,229)" /></sodipodi:namedview><g
     inkscape:groupmode="layer"
     inkscape:label="Image"
     id="g1"><path
       style="fill:#ffffff;fill-opacity:1;stroke-width:0.975906"
       d="m 304.32752,547.67006 c -0.4294,-0.14262 -2.51332,-0.27331 -4.63101,-0.29044 -2.11767,-0.0172 -5.13902,-0.16981 -6.71413,-0.3393 -1.57504,-0.1695 -5.00923,-0.5278 -7.63151,-0.79623 -2.62222,-0.26844 -5.85438,-0.6875 -7.18255,-0.93122 -1.32808,-0.24374 -4.03089,-0.7365 -6.00609,-1.09503 -5.4363,-0.98682 -15.94729,-3.70154 -17.10704,-4.4183 -1.29932,-0.803 -2.5669,-2.64972 -2.5669,-3.73966 0,-1.13467 3.3027,-8.85049 5.96251,-13.92966 7.20371,-13.75645 15.68907,-27.77168 27.74498,-45.8264 14.91683,-22.33907 27.82308,-40.08771 46.55203,-64.01829 5.84696,-7.47078 14.31006,-17.92761 19.20863,-23.73361 2.75327,-3.26339 5.84575,-6.97975 6.8722,-8.25868 4.09559,-5.10298 24.83839,-28.56466 31.35159,-35.46111 2.75766,-2.91987 7.25074,-7.69781 9.98478,-10.61767 8.72974,-9.32301 32.93021,-32.96019 41.20768,-40.24838 1.92807,-1.6976 3.64136,-3.34029 3.80726,-3.65042 0.44549,-0.83229 -0.19725,-1.07076 -1.36596,-0.50693 -0.54357,0.26227 -2.3234,1.00467 -3.95508,1.64985 -9.73664,3.84991 -25.86867,12.27319 -41.61211,21.72772 -9.00538,5.4081 -22.27222,14.21409 -29.74487,19.74341 -25.53424,18.89395 -46.98066,38.9629 -68.61725,64.21004 -10.85334,12.66439 -23.09383,28.80905 -32.90872,43.40506 -8.98931,13.36827 -15.78685,24.38857 -22.92362,37.16429 -6.77227,12.1232 -7.53405,13.55139 -13.65846,25.6073 -3.0101,5.92561 -5.62922,10.87706 -5.82016,11.00324 -0.19091,0.1262 -0.72336,0.23159 -1.18321,0.23422 -0.54249,0.003 -1.0754,-0.29681 -1.51759,-0.85399 -0.65363,-0.82374 -0.67532,-1.06905 -0.53107,-6.01147 0.14108,-4.83248 0.5211,-7.87627 2.28102,-18.26863 1.13215,-6.68503 4.26105,-18.55491 7.17827,-27.2312 1.78029,-5.29495 6.38036,-16.77377 9.03915,-22.55608 5.46333,-11.88156 12.82531,-25.36239 19.84392,-36.33688 9.27993,-14.51025 22.88702,-32.51753 33.54705,-44.39511 1.37961,-1.53721 3.61617,-4.06671 4.97008,-5.62112 3.96787,-4.55552 23.59201,-24.14383 29.7036,-29.64946 6.3481,-5.71861 15.24116,-13.38108 19.20552,-16.54791 1.45991,-1.1662 3.98942,-3.20548 5.62112,-4.53172 5.84029,-4.74703 17.25174,-13.42171 22.59005,-17.17246 1.86149,-1.30791 5.0234,-3.53254 7.02639,-4.94356 2.00303,-1.41107 4.62551,-3.16751 5.82781,-3.9032 2.21303,-1.35419 5.39149,-3.59055 7.2776,-5.12051 1.26094,-1.02289 0.91401,-1.56455 -0.59762,-0.93295 -0.59481,0.24853 -2.27092,0.74802 -3.72459,1.10998 -1.45368,0.36194 -3.69704,1.06389 -4.98524,1.55989 -1.28816,0.49599 -3.88791,1.49698 -5.77726,2.22443 -5.69936,2.19437 -12.10179,5.12328 -19.67389,9.00019 -14.90201,7.62989 -25.09627,13.74133 -38.87938,23.30822 -9.68718,6.72385 -21.75942,16.22254 -30.2916,23.83391 -4.18889,3.73691 -16.73835,16.16041 -21.66181,21.44443 -7.00471,7.51775 -14.19878,16.19818 -21.76691,26.26402 -5.05803,6.72721 -14.21272,20.34018 -18.13971,26.97329 -8.41862,14.22001 -16.70963,30.7562 -22.74717,45.36829 -0.75506,1.82722 -1.22678,2.5445 -1.90368,2.89455 -0.78432,0.40557 -1.03641,0.40826 -1.96327,0.021 -0.86377,-0.36089 -1.18494,-0.76918 -1.71075,-2.17441 -1.07133,-2.8633 -1.27823,-5.80722 -0.7971,-11.34216 0.46774,-5.3817 0.66945,-6.58007 2.01484,-11.97049 2.00493,-8.03314 4.90939,-16.01889 9.59754,-26.38804 7.42973,-16.43302 18.7478,-34.89917 33.11229,-54.02517 4.62142,-6.15327 13.03738,-16.50644 17.89664,-22.01607 9.16981,-10.39704 15.94355,-17.50487 23.26058,-24.40766 16.96632,-16.00598 32.20959,-28.25603 49.26714,-39.59275 11.8961,-7.90631 19.8369,-12.5239 31.73872,-18.45609 11.88634,-5.92441 19.88531,-9.35723 29.82347,-12.79885 11.35914,-3.93376 20.05401,-6.29662 31.63335,-8.59643 7.48973,-1.48755 9.63912,-1.83772 14.42829,-2.35077 10.50817,-1.12564 14.38813,-1.35201 23.10903,-1.34829 9.66434,0.004 17.74031,0.51226 26.54419,1.67018 6.17667,0.81238 18.02075,3.14369 23.26518,4.57939 3.28083,0.89812 4.25954,1.30091 5.10126,2.09961 1.40225,1.33042 2.02133,2.5825 1.77943,3.59821 -0.96379,4.04617 -9.81939,21.13138 -17.34242,33.45889 -1.83429,3.00572 -4.44253,7.29183 -5.7962,9.52468 -3.69949,6.10234 -19.0464,29.04378 -24.65094,36.84956 -2.71305,3.77859 -5.92013,8.2755 -7.12681,9.99305 -1.20678,1.7176 -3.62776,5.02002 -5.37996,7.33872 -1.75221,2.3187 -4.59275,6.11295 -6.31245,8.43165 -9.66317,13.02957 -24.83424,32.09771 -36.25034,45.56212 -1.77654,2.09528 -3.9547,4.69768 -4.84042,5.78316 -2.54757,3.12211 -8.56996,10.04869 -15.34818,17.65264 -3.43662,3.8552 -6.80801,7.64945 -7.49201,8.43166 -0.684,0.78222 -3.77064,4.16253 -6.85912,7.51177 -7.26695,7.88046 -37.54947,38.19061 -45.57879,45.62043 -9.71038,8.98531 -9.34726,8.62143 -9.14016,9.16113 0.20093,0.52361 1.30691,0.67732 1.58905,0.22082 0.0926,-0.14957 0.62766,-0.36266 1.18947,-0.47354 0.56176,-0.11087 2.42667,-0.89256 4.14425,-1.73714 1.71754,-0.84451 6.4662,-3.15525 10.55267,-5.13495 10.96165,-5.31053 18.85708,-9.71078 33.88187,-18.88291 13.79044,-8.41864 31.04972,-20.8825 42.85722,-30.9496 2.32328,-1.98083 4.99332,-4.2294 5.93341,-4.99684 9.29407,-7.587 35.34078,-33.64834 42.61293,-42.63675 0.83371,-1.03055 3.64564,-4.4032 6.2486,-7.49481 5.5086,-6.54263 10.31966,-12.70453 17.06753,-21.85993 5.99878,-8.13908 9.32139,-12.92387 14.52912,-20.92302 7.69361,-11.81762 12.98889,-20.45064 18.29263,-29.82318 1.89529,-3.34922 4.32476,-7.63533 5.39872,-9.52468 1.63763,-2.88077 10.38355,-19.8025 14.20347,-27.48099 1.01376,-2.03775 1.16269,-2.19232 2.19644,-2.27923 0.81856,-0.0687 1.26836,0.083 1.71757,0.58045 0.5585,0.61817 0.60046,1.07579 0.50989,5.55818 -0.0546,2.68652 -0.23537,5.86825 -0.40236,7.07051 -0.16706,1.20231 -0.43875,3.31025 -0.60367,4.6843 -0.90653,7.54839 -4.32954,21.87241 -7.57476,31.69686 -4.16608,12.61227 -7.76123,21.3298 -13.97355,33.88284 -2.3799,4.80915 -5.61477,10.99242 -7.18851,13.74053 -7.5966,13.26562 -18.40445,29.40035 -26.69629,39.8542 -1.68635,2.12608 -3.84023,4.84929 -4.78634,6.05157 -4.05942,5.1587 -15.14188,17.80117 -22.26228,25.39603 -5.39831,5.75805 -18.45491,18.35611 -23.52184,22.69578 -1.4038,1.20228 -5.49248,4.7728 -9.08592,7.93448 -3.59339,3.16168 -8.57123,7.36665 -11.06168,9.34439 -2.49045,1.97773 -5.86314,4.67131 -7.49481,5.98573 -3.45963,2.78693 -11.54058,8.87179 -16.2388,12.22756 -1.80343,1.28817 -5.45073,3.93239 -8.10506,5.87603 -2.6543,1.94365 -6.58909,4.71622 -8.74396,6.16118 -5.57523,3.73866 -6.57229,4.4681 -6.57229,4.80868 0,0.57238 0.88327,0.63705 2.23495,0.16368 13.14718,-4.60386 20.41073,-7.65276 31.80404,-13.34962 10.009,-5.0047 21.39372,-11.46809 30.33547,-17.22217 5.41787,-3.48639 16.35689,-11.20912 22.30347,-15.74583 4.72798,-3.60698 15.43023,-12.65955 21.37242,-18.07797 4.85672,-4.42853 14.60381,-14.22125 20.09338,-20.18741 7.98091,-8.6738 19.25515,-22.91967 26.63442,-33.65458 4.25691,-6.1927 10.87765,-16.77525 14.85313,-23.74103 5.27342,-9.24011 14.10225,-27.22326 18.23974,-37.15159 1.47291,-3.53451 2.4599,-4.99938 3.36868,-4.99938 1.00729,0 2.05851,0.64443 2.5261,1.54857 0.27041,0.52292 0.71248,2.39095 0.9823,4.15115 1.17703,7.67801 -0.58591,17.97378 -5.5211,32.24281 -1.41814,4.10009 -2.29889,6.30438 -5.36571,13.42825 -1.43426,3.33139 -7.51707,14.96454 -10.85882,20.76687 -1.92894,3.34926 -5.14145,8.65659 -7.1389,11.79404 -3.65666,5.74352 -12.6003,18.60691 -15.49808,22.29063 -0.8585,1.09131 -2.68536,3.47699 -4.0597,5.30152 -3.09748,4.11216 -13.11556,15.88803 -19.36124,22.75841 -10.11762,11.12963 -21.50185,22.1954 -31.22942,30.35567 -1.5458,1.29677 -4.63741,3.93533 -6.87026,5.86348 -4.25573,3.67508 -13.60913,10.87726 -20.37273,15.68727 -11.9647,8.50871 -23.48133,15.59938 -36.30686,22.35359 -3.19664,1.68347 -16.32505,7.87076 -16.70028,7.87076 -0.0809,0 -1.09944,0.43831 -2.26318,0.97405 -3.63499,1.67352 -13.438,5.41038 -18.97908,7.23474 -13.81547,4.54864 -29.81476,8.20658 -42.00226,9.60296 -1.63171,0.18696 -4.16121,0.4826 -5.6211,0.65698 -2.57587,0.30771 -11.43674,0.82104 -18.11251,1.04932 -1.80342,0.0616 -3.6303,-0.005 -4.05967,-0.14714 z M 183.1612,517.88954 c -4.4366,-2.34503 -17.48032,-10.45743 -26.07575,-16.21744 -4.86638,-3.26107 -13.06657,-9.24652 -17.80021,-12.9926 -10.49287,-8.30382 -13.20474,-10.60307 -22.01603,-18.6661 -6.83351,-6.25325 -23.517761,-23.15434 -28.129041,-28.4947 -12.37271,-14.32881 -19.24911,-23.19522 -29.69541,-38.28944 -3.81893,-5.51809 -9.38723,-14.38091 -12.65513,-20.14233 -4.22932,-7.45652 -7.90383,-14.17934 -7.90383,-14.4607 0,-0.11513 -1.0679,-2.56481 -2.37327,-5.44377 -4.005531,-8.83429 -7.045025,-16.86281 -8.702659,-22.9868 -0.425603,-1.57208 -1.230863,-4.96629 -1.789548,-7.54264 -0.920866,-4.24626 -1.016228,-5.18065 -1.020322,-9.9931 0,-4.29399 0.105304,-5.65806 0.570089,-7.13568 0.31601,-1.00481 0.841654,-2.09388 1.167996,-2.4202 0.383915,-0.384 1.031365,-0.59335 1.83523,-0.59335 0.944356,0 1.351342,0.16831 1.698542,0.70266 0.251155,0.38645 2.021277,4.21579 3.933382,8.50971 1.91217,4.29392 5.66415,12.20194 8.33763,17.57342 10.89608,21.89172 24.39408,42.6741 39.67648,61.08868 6.89586,8.30903 22.077561,24.592 27.520281,29.51638 1.4408,1.30361 4.40516,3.98627 6.58743,5.96147 5.85719,5.30138 9.14448,8.03683 16.08792,13.38747 11.92303,9.18784 20.45112,14.94795 34.55863,23.3419 6.3965,3.80588 7.6145,4.66053 9.96218,6.99043 2.82628,2.80492 8.6241,10.60362 9.84976,13.24886 0.71933,1.55266 0.71992,1.56521 0.55899,12.4955 -0.17596,11.95203 -0.10716,11.53304 -2.05916,12.54245 -1.03453,0.53493 -1.14784,0.536 -2.12418,0.0199 z m -20.92309,-66.32263 c -0.60115,-0.46209 -3.27114,-2.7332 -5.93341,-5.04685 -5.58477,-4.85366 -30.38864,-29.53661 -35.52576,-35.35264 -21.757297,-24.63318 -36.616751,-45.64871 -49.442901,-69.9266 -4.53308,-8.58036 -8.2799,-16.67172 -11.93009,-25.76342 -5.07964,-12.65163 -8.05248,-22.22514 -10.70103,-34.46033 -2.01523,-9.3091 -2.63082,-14.37424 -2.63413,-21.6728 0,-4.81613 0.0468,-5.28027 0.62212,-5.85531 0.77036,-0.77029 1.9325,-0.80572 2.56231,-0.078 0.26019,0.3006 2.97567,5.46501 6.03452,11.47647 6.576,12.92378 9.81565,18.95285 15.56445,28.9661 3.51213,6.11737 10.12406,16.94725 14.4398,23.65118 2.12326,3.2983 8.60454,12.89013 10.60149,15.68976 1.19254,1.67176 3.286794,4.62287 4.653831,6.55795 9.52914,13.48886 22.53839,29.5272 33.27097,41.01805 1.4599,1.56307 4.41101,4.77845 6.55796,7.14526 4.79492,5.28586 15.62046,15.77115 22.33155,21.62953 2.74996,2.4005 5.41995,4.97077 5.93341,5.71174 0.84246,1.21569 0.93178,1.57847 0.91475,3.71606 -0.0107,1.35169 -0.45123,4.51423 -1.02571,7.36537 -1.36567,6.77729 -1.91548,12.08482 -1.91909,18.52336 0,3.10537 -0.13988,5.66321 -0.32459,6.00826 -0.33677,0.62929 -1.85596,1.5466 -2.55157,1.54066 -0.22321,-0.002 -0.89772,-0.38156 -1.49888,-0.84369 z m 16.13,-71.34895 c -1.348,-1.40765 -4.04497,-4.53496 -5.99321,-6.94962 -1.9482,-2.41468 -4.91246,-6.07668 -6.58706,-8.13772 -7.2983,-8.98222 -15.53842,-19.64363 -26.79097,-34.66361 -11.97757,-15.98768 -21.08625,-29.00348 -32.92454,-47.04723 -6.163317,-9.39414 -13.657641,-21.54469 -17.594201,-28.52557 -4.80087,-8.51349 -10.63307,-20.26987 -11.51342,-23.2083 -0.34723,-1.1589 -0.31211,-1.37381 0.43272,-2.64469 0.44587,-0.7608 1.16938,-1.61829 1.60776,-1.90552 1.86658,-1.22306 18.11247,-4.9779 26.397201,-6.10107 5.96948,-0.80933 10.08618,-1.19374 17.64407,-1.64757 7.51402,-0.4512 10.97043,-0.44712 19.98618,0.0236 8.70471,0.45452 17.70282,1.57575 26.85643,3.34653 8.8251,1.70721 10.02036,1.98208 17.64408,4.05752 11.57544,3.15119 23.83953,7.74316 38.69713,14.48906 11.83351,5.3729 40.88269,22.44803 43.51174,25.57634 1.03991,1.23731 1.13132,2.80129 0.24755,4.2313 -0.33618,0.54393 -1.84674,2.10632 -3.35695,3.47197 -1.51026,1.36567 -5.34562,5.02103 -8.52312,8.12296 -4.97613,4.85774 -5.97845,5.6958 -7.22789,6.04291 -0.79791,0.22164 -1.78159,0.3007 -2.18601,0.17574 -0.40449,-0.12496 -5.23232,-2.44954 -10.72852,-5.16573 -5.49621,-2.71617 -11.97269,-5.77861 -14.39231,-6.80541 -9.18616,-3.8983 -15.9865,-6.56242 -17.6301,-6.90671 -3.51389,-0.73611 -3.42184,-0.73012 -3.42184,-0.22244 0,0.26407 0.38645,0.77901 0.85875,1.14434 2.64455,2.04531 4.57977,3.43602 10.22731,7.34969 15.13358,10.4873 22.90014,15.9554 24.26458,17.0838 0.80737,0.66759 1.77313,1.70779 2.14629,2.31155 0.96057,1.55422 0.68937,3.15727 -0.85341,5.04416 -0.6596,0.80666 -3.72878,4.42777 -6.82039,8.04688 -3.0916,3.61912 -6.50632,7.66785 -7.58831,8.99728 -3.41629,4.19744 -4.74641,4.52488 -8.67693,2.13593 -1.3595,-0.82625 -3.45553,-2.13701 -4.65781,-2.91282 -10.72461,-6.9202 -28.41221,-16.92609 -39.19168,-22.17085 -3.521,-1.71314 -7.52606,-3.68719 -8.90011,-4.38676 -1.37405,-0.69956 -3.82418,-1.87744 -5.44497,-2.61743 -2.24095,-1.02328 -3.08234,-1.27289 -3.51321,-1.04231 -1.21254,0.64895 -1.06876,0.81081 7.87816,8.86902 2.47908,2.23286 6.1964,5.67576 8.26093,7.65096 2.06436,1.9752 5.56168,5.2776 7.77166,7.33872 5.44624,5.07911 26.84337,27.26921 27.47782,28.49599 0.62591,1.21049 0.65735,3.25673 0.0673,4.39742 -0.24273,0.46924 -1.89881,3.02694 -3.68028,5.68365 -1.78139,2.65675 -4.23379,6.5168 -5.44965,8.57784 -4.6863,7.94407 -8.21574,14.20323 -10.09725,17.90681 -2.08489,4.10402 -2.98503,5.04131 -4.84596,5.04623 -0.76676,0.002 -1.38175,-0.46213 -3.38779,-2.55683 z m 39.92503,-183.00567 c -1.03049,-0.71408 -5.18976,-3.76693 -9.24273,-6.78407 -4.05302,-3.01715 -9.59774,-7.10176 -12.32166,-9.07697 -2.72378,-1.9752 -6.08278,-4.51617 -7.46434,-5.64659 -3.92526,-3.21182 -8.62657,-6.53246 -9.24852,-6.53246 -0.93834,0 -1.04165,0.65287 -0.21555,1.36179 0.42808,0.3674 1.1089,1.1599 1.51289,1.76105 0.4039,0.60112 2.0038,2.42802 3.55529,4.05966 1.55145,1.6317 4.08553,4.43902 5.63133,6.23852 1.5458,1.79946 3.96991,4.59525 5.38691,6.21291 1.41701,1.61759 2.57636,3.12494 2.57636,3.34958 0,0.85391 -0.75906,2.02104 -1.42276,2.18762 -0.38011,0.0953 -2.14773,-0.18162 -3.92802,-0.61565 -4.8253,-1.17629 -21.54061,-4.42956 -24.94082,-4.85417 -1.6317,-0.20378 -4.3017,-0.56526 -5.93341,-0.8034 -6.7257,-0.98141 -13.02295,-1.23775 -30.60383,-1.24579 -17.74158,-0.008 -22.51053,0.19455 -29.82314,1.26756 -4.982721,0.7311 -12.117941,1.96643 -17.091341,2.95903 -2.52999,0.50492 -5.03083,0.91801 -5.55729,0.91801 -1.12211,0 -2.36068,-1.09276 -2.67981,-2.36422 -0.16688,-0.66493 0.11642,-1.52682 1.26641,-3.85238 3.66926,-7.41994 10.16272,-18.79124 14.01523,-24.54339 2.86677,-4.28037 8.731781,-12.39941 11.730471,-16.23878 6.22313,-7.96783 13.0404,-15.5961 20.3875,-22.81291 9.03056,-8.87035 11.13105,-10.72472 20.55563,-18.14693 11.02859,-8.685348 20.98938,-15.300033 33.88286,-22.500563 9.26719,-5.175383 16.19444,-8.469017 27.52441,-13.086706 15.5256,-6.327672 34.94119,-11.838075 50.54664,-14.345828 3.6069,-0.579614 7.40116,-1.194207 8.43167,-1.365764 2.51955,-0.419428 13.2958,-1.50866 18.89322,-1.909672 2.49045,-0.178421 6.42526,-0.462984 8.74396,-0.632361 4.40204,-0.321562 11.29764,-0.171544 15.30192,0.332903 1.28819,0.162282 4.7311,0.447505 7.65096,0.633829 13.54115,0.864098 28.89336,3.388139 43.71981,7.187975 30.1702,7.732186 60.93536,22.515778 86.34662,41.492259 5.41737,4.045538 14.40159,11.465808 20.29848,16.765118 4.20365,3.77752 11.23932,10.86508 15.78109,15.89727 8.58664,9.51385 16.49068,19.94386 23.71243,31.29047 5.95938,9.36299 13.90711,23.95298 13.90711,25.52961 0,0.56467 -0.3732,1.23209 -1.08979,1.94859 -1.00828,1.0083 -1.1891,1.07387 -2.4202,0.87675 -0.73171,-0.11713 -3.15728,-0.61221 -5.39013,-1.10015 -3.66873,-0.80174 -8.99786,-1.71064 -17.33178,-2.95606 -7.72003,-1.15367 -10.02304,-1.25176 -29.19859,-1.24423 -19.07255,0.008 -23.16797,0.16997 -32.00914,1.26993 -6.88284,0.85628 -21.34317,3.59437 -28.10559,5.32184 -2.3187,0.59228 -4.52937,0.99896 -4.9127,0.90364 -0.62809,-0.15615 -1.64525,-1.57245 -1.64525,-2.2908 0,-0.15609 0.45669,-0.84602 1.01492,-1.53317 1.3236,-1.62929 11.18925,-12.67755 15.38253,-17.22646 3.03784,-3.29558 3.89907,-4.72115 2.85205,-4.72115 -0.23343,0 -1.04148,0.53761 -1.79566,1.19466 -0.75414,0.65705 -2.21437,1.78629 -3.24493,2.50939 -1.03051,0.72311 -2.71685,1.94449 -3.7474,2.71422 -1.03053,0.76972 -3.70055,2.68475 -5.93341,4.25558 -2.2328,1.57086 -6.94051,5.03832 -10.46151,7.70552 -8.16681,6.18637 -15.12793,11.19037 -15.91419,11.43995 -0.77895,0.2472 -1.78649,-0.2836 -2.03707,-1.0732 -0.10638,-0.3351 0.0263,-1.00275 0.295,-1.48368 0.66789,-1.19596 6.16039,-8.67952 12.25638,-16.69964 11.61931,-15.28666 13.52836,-17.81596 16.9306,-22.4309 1.96202,-2.66152 4.70229,-6.20803 6.08953,-7.88122 1.38715,-1.67313 3.06224,-3.75995 3.72242,-4.63732 1.429,-1.89919 2.4983,-4.14068 2.04967,-4.29661 -0.5375,-0.18686 -2.62454,1.38383 -6.47403,4.87238 -2.03687,1.84595 -5.1568,4.62103 -6.9331,6.16686 -1.77634,1.5458 -4.57401,4.06245 -6.2171,5.59259 -1.643,1.53015 -4.53322,4.14591 -6.42252,5.81277 -1.88933,1.66685 -3.7162,3.34935 -4.0597,3.73882 -0.34351,0.38946 -2.73251,2.62082 -5.30883,4.9585 -2.57633,2.33773 -7.14349,6.50187 -10.14925,9.25371 -7.34571,6.72526 -8.49959,7.72974 -9.47849,8.2512 -0.73663,0.39242 -0.96625,0.3841 -1.91665,-0.069 -0.61588,-0.29368 -1.15565,-0.82063 -1.25628,-1.22649 -0.24914,-1.00435 0.88601,-3.75153 7.26208,-17.57498 2.13905,-4.6374 4.4405,-9.81215 5.11434,-11.49943 0.67384,-1.68724 2.36623,-5.48149 3.76097,-8.43166 2.81213,-5.9486 3.75856,-8.29011 3.51193,-8.68901 -0.344,-0.55659 -1.08147,-0.22732 -1.76255,0.78692 -0.38899,0.57921 -1.79856,2.51146 -3.13241,4.29391 -2.56286,3.42462 -10.17189,14.14865 -17.83426,25.13524 -2.52882,3.6259 -5.26463,7.42016 -6.07949,8.43173 -1.2752,1.58277 -1.62738,1.83912 -2.52726,1.83912 -0.75601,0 -1.20961,-0.21963 -1.63762,-0.79287 -0.58799,-0.78756 -0.58449,-0.81924 0.52226,-4.68431 0.61286,-2.14022 1.66038,-5.64793 2.32791,-7.79489 1.35422,-4.35587 3.54276,-11.53172 5.95273,-19.51777 0.88113,-2.91987 2.43092,-7.90861 3.44408,-11.08611 1.4774,-4.63361 4.56072,-14.99865 6.59554,-22.17218 0.28156,-0.99247 0.60378,-2.39661 1.0931,-4.76234 0.25472,-1.23186 -0.50073,-1.10902 -1.4123,0.22965 -0.91713,1.3468 -1.30124,2.01636 -3.60006,6.27586 -1.01206,1.87524 -2.26307,4.11216 -2.7801,4.97094 -0.95424,1.58506 -2.59001,4.64754 -10.84224,20.29848 -2.53575,4.80919 -5.27143,9.93845 -6.07946,11.3984 -0.80806,1.4599 -3.2009,5.88879 -5.31754,9.8419 -5.51454,10.29949 -6.22304,11.4975 -7.09442,11.99556 -0.63205,0.3613 -0.95293,0.37437 -1.69042,0.0688 -1.57975,-0.65434 -1.69354,-1.13556 -1.35599,-5.73126 0.16776,-2.28373 0.44637,-4.78457 0.61899,-5.55747 0.27413,-1.22687 0.90466,-6.45683 1.88238,-15.61422 0.2712,-2.5403 1.26602,-11.11552 1.90203,-16.39494 0.54134,-4.49318 0.80109,-9.05014 0.53333,-9.35514 -0.40482,-0.46113 -1.03619,0.38333 -1.9749,2.64103 -1.06083,2.55165 -5.14091,14.81283 -10.44347,31.38456 -2.25333,7.04201 -4.33891,13.29553 -4.63471,13.89668 -0.49575,1.00741 -0.64777,1.093 -1.94252,1.093 -1.2976,0 -1.44439,-0.0831 -1.92679,-1.093 -0.30093,-0.6298 -0.6597,-2.61507 -0.84655,-4.68426 -0.17842,-1.9752 -0.5431,-5.44273 -0.8105,-7.7056 -0.68027,-5.75791 -1.31482,-11.9465 -2.02781,-19.77544 -0.33628,-3.69276 -0.75299,-7.90859 -0.92613,-9.36852 -0.17301,-1.45993 -0.464,-4.55155 -0.6465,-6.87025 -0.18251,-2.31872 -0.46931,-5.12928 -0.63735,-6.24569 -0.16804,-1.11643 -0.44042,-3.36487 -0.60525,-4.99655 -0.51526,-5.09965 -1.23783,-10.72303 -1.53966,-11.983068 -0.91248,-3.80916 -2.2582,-1.16026 -2.67678,5.268938 -0.19163,2.94441 -0.39639,4.78265 -1.39121,12.49139 -0.33258,2.57634 -0.76842,6.72191 -0.9686,9.21238 -0.38116,4.74235 -1.09522,11.41565 -2.12164,19.83005 -0.3353,2.74808 -0.77387,6.8937 -0.97463,9.2124 -0.20085,2.3187 -0.55781,5.76165 -0.79337,7.65095 -0.23563,1.8893 -0.52097,4.34856 -0.63407,5.46495 -0.27569,2.72186 -0.75682,3.43517 -2.31694,3.43517 -0.93559,0 -1.36528,-0.18565 -1.84689,-0.79785 -0.59771,-0.75991 -4.16389,-11.42547 -10.80122,-32.3043 -1.66534,-5.23856 -3.49907,-10.64889 -4.07491,-12.02294 -0.57588,-1.37405 -1.09388,-2.77933 -1.15116,-3.12284 -0.0614,-0.36927 -0.39298,-0.66575 -0.81079,-0.72533 -0.66467,-0.0947 -0.69538,-0.0202 -0.51534,1.24914 0.1053,0.74244 0.32556,1.79245 0.48961,2.33337 0.16394,0.54092 0.21138,1.32906 0.10539,1.75145 -0.10599,0.42238 -0.0322,1.87695 0.16395,3.23236 0.19622,1.35542 0.4808,4.36057 0.63255,6.67812 0.15167,2.31757 0.42365,5.12813 0.60427,6.2457 0.50208,3.10663 1.47916,11.42291 2.03638,17.33385 0.2752,2.91985 0.63533,6.26001 0.80016,7.42255 0.6227,4.39146 0.24629,5.89026 -1.58748,6.3223 -1.13508,0.2674 -2.25372,-0.72971 -3.61744,-3.22422 -0.62806,-1.1489 -2.57577,-4.68873 -4.32807,-7.86618 -3.31714,-6.01484 -4.47746,-8.16831 -8.75002,-16.23882 -1.40935,-2.6622 -3.617,-6.80777 -4.90607,-9.21236 -1.28894,-2.40459 -3.2989,-6.19885 -4.46654,-8.43168 -1.16754,-2.23283 -2.36213,-4.41101 -2.6546,-4.84041 -0.29241,-0.42939 -1.48881,-2.67783 -2.65874,-4.99654 -1.16988,-2.31871 -2.68651,-5.12928 -3.37031,-6.24569 -0.68379,-1.11642 -1.57608,-2.70293 -1.98282,-3.52558 -0.70566,-1.42743 -1.45964,-2.09062 -1.88871,-1.66147 -0.1094,0.10941 0.0936,1.07533 0.45153,2.14649 0.35783,1.07115 0.89751,3.07179 1.19948,4.44584 0.30182,1.37405 0.88298,3.48197 1.29137,4.68426 0.40833,1.2023 1.52405,4.92629 2.47934,8.27553 0.95523,3.34926 2.69394,9.18117 3.86384,12.95981 1.16991,3.77864 3.56569,11.64821 5.32395,17.48792 1.75835,5.83971 3.54192,11.74186 3.96327,13.11591 1.17812,3.84103 1.9403,6.79975 1.94625,7.55523 0.01,0.80526 -1.07789,1.65719 -2.10893,1.65719 -0.39942,0 -1.0871,-0.38645 -1.5282,-0.85881 -0.44121,-0.47229 -3.80287,-5.14484 -7.47044,-10.38344 -3.66759,-5.23858 -7.95711,-11.28129 -9.5324,-13.42824 -1.57526,-2.14695 -3.80977,-5.3088 -4.96561,-7.02635 -1.93762,-2.8792 -2.95097,-4.29738 -5.63466,-7.8852 -0.99892,-1.33557 -1.85665,-1.7307 -1.85665,-0.85537 0,0.25949 0.27023,1.06753 0.60047,1.79563 0.33015,0.72809 1.04986,2.37776 1.59938,3.66593 0.54943,1.28815 1.59802,3.67716 2.33012,5.30882 0.73215,1.63169 2.8378,6.40965 4.67928,10.61769 1.84153,4.20802 4.04966,9.19678 4.907,11.08608 2.86277,6.30845 5.55778,12.64174 5.54781,13.0371 -0.0224,0.87199 -1.55635,2.10868 -2.61596,2.10868 -0.56044,0 -3.21644,-2.24683 -9.54088,-8.07128 -5.8935,-5.42754 -11.45987,-10.47533 -15.93887,-14.45388 -1.97521,-1.75452 -4.57498,-4.13155 -5.77726,-5.28229 -2.35541,-2.25447 -4.94278,-4.59903 -10.49549,-9.51051 -1.94184,-1.71756 -5.08237,-4.60659 -6.97908,-6.42006 -4.12898,-3.94785 -7.15238,-6.53973 -7.62864,-6.53973 -0.57691,0 -0.39327,0.83467 0.38977,1.77167 0.40581,0.4855 1.74461,2.35828 2.97518,4.16173 1.23064,1.80343 3.2911,4.61398 4.57882,6.24568 1.28776,1.63165 3.69461,4.84695 5.34844,7.14504 1.65384,2.29803 4.64501,6.30309 6.64708,8.90008 6.0431,7.83872 19.76552,26.14904 21.01419,28.03987 0.6431,0.97379 1.1692,1.97082 1.1692,2.2157 0,0.61892 -1.02057,1.48047 -1.74217,1.47063 -0.32995,-0.005 -1.44313,-0.59235 -2.47369,-1.30643 z m 1.4053,-57.23869 c 0,-0.25763 -0.14054,-0.46842 -0.31229,-0.46842 -0.17175,0 -0.31225,0.21079 -0.31225,0.46842 0,0.25763 0.1405,0.46843 0.31225,0.46843 0.17175,0 0.31229,-0.2108 0.31229,-0.46843 z"
       id="path93" /></g></svg>
