<?xml version="1.0" encoding="UTF-8" standalone="no"?>
<!-- Created with Inkscape (http://www.inkscape.org/) -->

<svg
   version="1.1"
   id="svg1"
   width="600"
   height="540"
   viewBox="0 0 600 540"
   sodipodi:docname="Logo.svg"
   xml:space="preserve"
   inkscape:version="1.3.2 (091e20ef0f, 2023-11-25)"
   xmlns:inkscape="http://www.inkscape.org/namespaces/inkscape"
   xmlns:sodipodi="http://sodipodi.sourceforge.net/DTD/sodipodi-0.dtd"
   xmlns="http://www.w3.org/2000/svg"
   xmlns:svg="http://www.w3.org/2000/svg"><defs
     id="defs1" /><sodipodi:namedview
     id="namedview1"
     pagecolor="#000000"
     bordercolor="#000000"
     borderopacity="0.25"
     inkscape:showpageshadow="2"
     inkscape:pageopacity="0.0"
     inkscape:pagecheckerboard="0"
     inkscape:deskcolor="#d1d1d1"
     showguides="true"
     inkscape:zoom="0.73611111"
     inkscape:cx="488.37736"
     inkscape:cy="393.96226"
     inkscape:window-width="1920"
     inkscape:window-height="1008"
     inkscape:window-x="0"
     inkscape:window-y="0"
     inkscape:window-maximized="1"
     inkscape:current-layer="g1"><sodipodi:guide
       position="300,300"
       orientation="0,1"
       id="guide1"
       inkscape:locked="false"
       inkscape:label=""
       inkscape:color="rgb(0,134,229)" /><sodipodi:guide
       position="300,300"
       orientation="-1,0"
       id="guide2"
       inkscape:locked="false"
       inkscape:label=""
       inkscape:color="rgb(0,134,229)" /><sodipodi:guide
       position="329.11735,59.058623"
       orientation="0,1"
       id="guide3"
       inkscape:locked="false"
       inkscape:label=""
       inkscape:color="rgb(0,134,229)" /></sodipodi:namedview><g
     inkscape:groupmode="layer"
     inkscape:label="Image"
     id="g1"><path
       style="fill:#ffffff;fill-opacity:1;stroke-width:1.05575"
       d="m 304.49094,539.38858 c -0.46443,-0.15413 -2.71895,-0.29569 -5.01015,-0.31425 -2.29066,-0.0172 -5.55951,-0.1837 -7.2634,-0.36716 -1.7037,-0.18333 -5.41903,-0.57067 -8.25563,-0.86126 -2.83682,-0.29043 -6.33363,-0.7439 -7.7705,-1.00738 -1.43656,-0.26369 -4.36048,-0.79689 -6.49729,-1.18459 -5.88125,-1.06752 -17.25207,-4.00464 -18.50678,-4.77996 -1.40568,-0.86854 -2.77706,-2.86645 -2.77706,-4.0456 0,-1.22745 3.573,-9.57448 6.45057,-15.06934 7.79311,-14.88204 16.97267,-30.04403 30.01487,-49.57571 16.13728,-24.16686 30.09968,-43.36781 50.36081,-69.25629 6.3255,-8.08198 15.48104,-19.39452 20.78045,-25.67562 2.97843,-3.53027 6.32412,-7.55051 7.43442,-8.93425 4.43054,-5.52033 26.87049,-30.90158 33.91672,-38.3623 2.9833,-3.15911 7.84378,-8.32769 10.80163,-11.48639 9.44411,-10.08602 35.62458,-35.65701 44.57916,-43.54157 2.08578,-1.83632 3.9394,-3.61361 4.11892,-3.9492 0.48187,-0.90039 -0.21366,-1.15813 -1.47775,-0.54836 -0.58799,0.28395 -2.51348,1.08689 -4.27863,1.78485 -10.53329,4.16491 -27.9852,13.2774 -45.01688,23.50546 -9.74208,5.85076 -24.09457,15.37728 -32.17871,21.35885 -27.62328,20.43992 -50.8244,42.15087 -74.23107,69.46369 -11.74134,13.70055 -24.9835,31.16595 -35.60122,46.95633 -9.72508,14.4621 -17.07851,26.38382 -24.79923,40.20508 -7.32635,13.11517 -8.15046,14.66012 -14.7762,27.70221 -3.25616,6.41065 -6.08977,11.76725 -6.29612,11.90363 -0.20672,0.13639 -0.78276,0.25048 -1.28024,0.25327 -0.58688,0.003 -1.16319,-0.32115 -1.64143,-0.92367 -0.70726,-0.89112 -0.73087,-1.15673 -0.57461,-6.5034 0.15238,-5.2279 0.56356,-8.52076 2.46748,-19.76344 1.22491,-7.23179 4.60979,-20.073 7.76575,-29.45921 1.92575,-5.72816 6.90236,-18.14615 9.77855,-24.40158 5.91055,-12.85362 13.87456,-27.43748 21.46763,-39.30973 10.03919,-15.6975 24.75942,-35.17818 36.29184,-48.02764 1.49232,-1.66291 3.91198,-4.39941 5.37654,-6.08087 4.29252,-4.92839 25.52221,-26.11927 32.13389,-32.07542 6.86765,-6.18654 16.48811,-14.47576 20.77705,-17.90183 1.57917,-1.26161 4.31568,-3.46754 6.08111,-4.90242 6.31814,-5.13524 18.66302,-14.51977 24.43798,-18.57739 2.01392,-1.41498 5.43462,-3.82178 7.60135,-5.34808 2.16717,-1.52668 5.00398,-3.42687 6.30472,-4.22264 2.39401,-1.46511 5.83255,-3.88441 7.87323,-5.53929 1.36386,-1.1069 0.98855,-1.69274 -0.64653,-1.00936 -0.6435,0.26875 -2.45696,0.80914 -4.02938,1.20083 -1.5725,0.39136 -3.99957,1.15076 -5.39327,1.68732 -1.39344,0.53652 -4.20591,1.61947 -6.25007,2.40662 -6.16537,2.37394 -13.09182,5.54239 -21.28333,9.73641 -16.12126,8.25407 -27.14983,14.86562 -42.06035,25.21523 -10.47973,7.27394 -23.53996,17.54974 -32.77004,25.78398 -4.53167,4.04267 -18.10787,17.4827 -23.43441,23.19895 -7.57761,8.13283 -15.36018,17.52371 -23.54773,28.41308 -5.47189,7.27753 -15.37545,22.00439 -19.62393,29.18007 -9.10736,15.38364 -18.07649,33.27243 -24.60803,49.08033 -0.81711,1.97667 -1.32719,2.75254 -2.0596,3.1314 -0.8485,0.43872 -1.12128,0.44153 -2.12377,0.021 -0.93447,-0.39032 -1.28212,-0.83206 -1.85097,-2.35221 -1.15879,-3.09755 -1.38278,-6.2826 -0.86206,-12.27029 0.50571,-5.82187 0.724,-7.11826 2.17964,-12.94968 2.16878,-8.69045 5.31107,-17.32948 10.38264,-28.5471 8.03768,-17.77766 20.2819,-37.75476 35.82144,-58.44542 4.99966,-6.65675 14.10418,-17.85696 19.3611,-23.81754 9.91999,-11.24772 17.24788,-18.93713 25.16354,-26.40444 18.3547,-17.31556 34.84495,-30.56787 53.29809,-42.83219 12.86968,-8.55337 21.46008,-13.5488 34.33556,-19.9663 12.85883,-6.40914 21.51244,-10.12281 32.26372,-13.84596 12.28834,-4.2555 21.69462,-6.81186 34.22153,-9.29982 8.10252,-1.60935 10.4279,-1.98792 15.6086,-2.54318 11.36795,-1.21758 15.56557,-1.46241 24.99989,-1.45836 10.45515,0.004 19.19177,0.55401 28.71598,1.80662 6.68193,0.8789 19.49509,3.40085 25.16874,4.95426 3.54911,0.9716 4.60803,1.40714 5.51868,2.27137 1.51678,1.43933 2.18659,2.79381 1.92503,3.89247 -1.04277,4.37729 -10.62293,22.86028 -18.76142,36.19668 -1.98456,3.2514 -4.80605,7.88817 -6.27056,10.30385 -4.00189,6.60172 -20.60454,31.42012 -26.66781,39.8645 -2.93494,4.08759 -6.40444,8.95242 -7.70996,10.81055 -1.30564,1.85826 -3.92462,5.43096 -5.81999,7.93927 -1.89547,2.50855 -4.96866,6.61321 -6.82888,9.12139 -10.45394,14.09568 -26.86624,34.72407 -39.21617,49.29019 -1.92218,2.26658 -4.27837,5.08195 -5.23666,6.2563 -2.75605,3.37735 -9.27105,10.87063 -16.60387,19.09686 -3.71789,4.17063 -7.36497,8.27538 -8.10515,9.12157 -0.73999,0.84599 -4.07896,4.50303 -7.42005,8.12624 -7.86157,8.52532 -40.62203,41.31542 -49.30832,49.3532 -10.50492,9.72023 -10.11196,9.32671 -9.88771,9.91065 0.21745,0.56612 1.41389,0.73266 1.71913,0.23884 0.0994,-0.16187 0.67889,-0.3923 1.28657,-0.51226 0.60786,-0.11993 2.62549,-0.9656 4.48341,-1.87951 1.85822,-0.91343 6.99521,-3.41317 11.41611,-5.55487 11.85856,-5.74519 20.3998,-10.50544 36.65405,-20.42787 14.91854,-9.10748 33.59008,-22.59104 46.36373,-33.4818 2.51317,-2.14294 5.40187,-4.57574 6.41878,-5.40585 10.05451,-8.20787 38.23222,-36.40135 46.0996,-46.12507 0.90179,-1.1151 3.9438,-4.76351 6.75964,-8.10806 5.95933,-7.07785 11.16419,-13.74403 18.46393,-23.64864 6.48984,-8.80496 10.08425,-13.98124 15.71799,-22.63475 8.3228,-12.78449 14.05168,-22.1238 19.7892,-32.26338 2.05048,-3.6231 4.67878,-8.25985 5.84042,-10.30393 1.77162,-3.1163 11.23311,-21.42269 15.36563,-29.72926 1.09654,-2.20455 1.25778,-2.37177 2.37622,-2.46592 0.88541,-0.0729 1.37208,0.0889 1.85815,0.6281 0.6042,0.66861 0.64952,1.16364 0.55131,6.01289 -0.0581,2.90635 -0.25432,6.34849 -0.43506,7.64884 -0.18072,1.30076 -0.4745,3.58132 -0.65292,5.06772 -0.98089,8.16602 -4.68409,23.6618 -8.19481,34.29029 -4.50683,13.64405 -8.39601,23.07495 -15.11656,36.65512 -2.57474,5.20234 -6.07417,11.89175 -7.77681,14.86468 -8.21824,14.35103 -19.91021,31.80573 -28.88039,43.11486 -1.82452,2.30004 -4.15473,5.24626 -5.17799,6.54669 -4.39186,5.58084 -16.38082,19.25751 -24.08389,27.47383 -5.83986,6.22936 -19.96474,19.85819 -25.4464,24.55297 -1.51848,1.30063 -5.94169,5.16328 -9.82928,8.58333 -3.88721,3.42069 -9.27247,7.96965 -11.96677,10.1093 -2.69407,2.13948 -6.34298,5.05344 -8.10793,6.47538 -3.74261,3.01479 -12.48479,9.59756 -17.56737,13.2279 -1.95092,1.39375 -5.89688,4.25419 -8.76834,6.35697 -2.87119,2.10251 -7.1282,5.10196 -9.45937,6.66531 -6.03123,4.04448 -7.10992,4.83349 -7.10992,5.20184 0,0.6194 0.9556,0.68942 2.41767,0.1771 14.22289,-4.98035 22.08068,-8.27888 34.40632,-14.44167 10.82794,-5.4142 23.14416,-12.40662 32.81745,-18.6312 5.86119,-3.77189 17.69522,-12.12634 24.12835,-17.03438 5.11486,-3.9019 16.69251,-13.69547 23.121,-19.55688 5.25415,-4.79104 15.7987,-15.38476 21.73744,-21.83928 8.63391,-9.38329 20.83057,-24.79475 28.8137,-36.408 4.60507,-6.69942 11.76761,-18.14775 16.06838,-25.68344 5.70478,-9.99613 15.25585,-29.45057 19.73202,-40.1915 1.59323,-3.82359 2.66103,-5.40826 3.64426,-5.40826 1.08962,0 2.22676,0.6971 2.73271,1.6753 0.29265,0.56558 0.77088,2.58649 1.0627,4.49069 1.27332,8.30637 -0.63362,19.44449 -5.97289,34.88082 -1.53414,4.43579 -2.48696,6.82008 -5.80458,14.52709 -1.55163,3.60371 -8.13212,16.18894 -11.74742,22.46577 -2.08677,3.62322 -5.56185,9.36506 -7.723,12.75921 -3.95555,6.21331 -13.63122,20.12934 -16.76588,24.11443 -0.92905,1.18055 -2.90521,3.76131 -4.39187,5.73515 -3.35088,4.44852 -14.18888,17.18786 -20.94542,24.62027 -10.94538,12.04038 -23.26108,24.01164 -33.78463,32.83967 -1.67213,1.40278 -5.01673,4.25731 -7.43242,6.34317 -4.60381,3.97564 -14.72241,11.76699 -22.03948,16.97073 -12.94373,9.20486 -25.4026,16.87557 -39.27738,24.18237 -3.45837,1.82137 -17.6608,8.51475 -18.06668,8.51475 -0.0866,0 -1.18938,0.47421 -2.44829,1.05364 -3.93245,1.8105 -14.53766,5.85318 -20.53195,7.82692 -14.94569,4.92071 -32.25419,8.87804 -45.43895,10.38858 -1.76529,0.20234 -4.50173,0.52226 -6.08089,0.71064 -2.78658,0.33305 -12.37247,0.88814 -19.59473,1.13522 -1.95065,0.0656 -3.9273,-0.005 -4.39153,-0.15901 z M 173.41109,507.17133 c -4.7997,-2.53688 -18.91053,-11.31274 -28.20922,-17.54429 C 139.93713,486.09933 131.06617,479.624 125.9452,475.57151 114.59368,466.58819 111.66,464.10081 102.12786,455.37817 94.735181,448.61333 76.685858,430.32939 71.697302,424.5522 58.312267,409.0509 50.873247,399.45914 39.57226,383.12969 35.440859,377.16018 29.416984,367.57246 25.881723,361.33934 c -4.575367,-8.06635 -8.550517,-15.33932 -8.550517,-15.64374 0,-0.12459 -1.155267,-2.77452 -2.56746,-5.88921 -4.333243,-9.55695 -7.6214348,-18.24226 -9.4146863,-24.86747 -0.4604131,-1.70057 -1.3315739,-5.37254 -1.9359554,-8.15984 -0.9962268,-4.59346 -1.0993937,-5.6042 -1.1038167,-10.81069 0,-4.64529 0.1139128,-6.12085 0.6167418,-7.71938 0.3418544,-1.08717 0.9105053,-2.2651 1.2635439,-2.6182 0.4153332,-0.41544 1.1157605,-0.64188 1.9853937,-0.64188 1.0216137,0 1.4618997,0.18208 1.8375323,0.76012 0.2716804,0.41808 2.1866227,4.56052 4.2551877,9.20586 2.0686,4.64507 6.127591,13.20029 9.019806,19.01143 11.78757,23.68287 26.389961,46.16546 42.922742,66.08678 7.460048,8.98884 23.883963,26.60411 29.771902,31.93126 1.558744,1.41028 4.765642,4.31253 7.126203,6.44933 6.3367,5.73496 9.89305,8.69435 17.40443,14.48261 12.89862,9.93963 22.12451,16.17122 37.38603,25.25156 6.92008,4.11758 8.23769,5.042 10.77724,7.56268 3.05777,3.03441 9.32982,11.47113 10.65591,14.33261 0.7782,1.67993 0.77885,1.69363 0.60464,13.51808 -0.19021,12.92996 -0.11586,12.47654 -2.22768,13.56864 -1.11931,0.5786 -1.24186,0.57973 -2.29782,0.0199 z m -22.63525,-71.74899 c -0.65028,-0.4998 -3.53852,-2.95663 -6.41883,-5.45978 -6.04158,-5.25079 -32.87477,-31.95326 -38.43248,-38.24503 C 82.387217,365.0689 66.312032,342.33398 52.436459,316.06958 47.532498,306.78722 43.479103,298.03372 39.530281,288.19836 34.035006,274.51149 30.818958,264.15483 27.953707,250.9184 c -2.180113,-10.07083 -2.84606,-15.55006 -2.849671,-23.44594 0,-5.21012 0.05075,-5.71227 0.673022,-6.33434 0.833393,-0.83329 2.09064,-0.87182 2.771949,-0.0826 0.281482,0.3254 3.219141,5.91233 6.528262,12.41534 7.114053,13.98119 10.618768,20.50386 16.837899,31.33627 3.799505,6.6179 10.952417,18.33388 15.621259,25.58624 2.296982,3.56824 9.308541,13.94466 11.468873,16.97344 1.290133,1.8085 3.555731,5.00096 5.034606,7.0944 10.308845,14.59242 24.382324,31.94309 35.993314,44.3741 1.57908,1.69092 4.77192,5.16962 7.09446,7.73005 5.18727,5.71807 16.89846,17.0615 24.15861,23.3991 2.97496,2.59703 5.86327,5.37756 6.41889,6.17891 0.91127,1.31528 1.00807,1.70784 0.98946,4.02041 -0.0107,1.46211 -0.48823,4.88349 -1.10951,7.96799 -1.47738,7.33178 -2.07213,13.07341 -2.0761,20.03878 0,3.35954 -0.15153,6.12656 -0.35108,6.49991 -0.36431,0.68072 -2.00801,1.67314 -2.76068,1.66673 -0.24139,-0.002 -0.97092,-0.41276 -1.62143,-0.91287 z m 17.45006,-77.18637 c -1.4585,-1.52311 -4.37597,-4.90598 -6.48366,-7.51836 -2.10785,-2.61218 -5.3146,-6.57404 -7.12602,-8.80344 -7.89562,-9.71734 -16.80983,-21.25118 -28.98296,-37.49993 C 112.67569,287.1186 102.82165,273.03769 90.014651,253.51779 83.347286,243.355 75.23972,230.21028 70.981066,222.65813 65.787419,213.44834 59.478034,200.73 58.52565,197.55108 c -0.375632,-1.25375 -0.337644,-1.48625 0.468132,-2.86111 0.482353,-0.82308 1.26505,-1.75055 1.739286,-2.06116 2.019336,-1.32341 19.594409,-5.38545 28.557016,-6.60041 6.457844,-0.87559 10.911216,-1.2915 19.087766,-1.78227 8.12866,-0.48815 11.86773,-0.4837 21.62108,0.0238 9.41708,0.4916 19.15155,1.70473 29.05383,3.62024 9.54735,1.84692 10.84049,2.14426 19.08773,4.38967 12.52269,3.40893 25.79028,8.37676 41.8634,15.67432 12.80179,5.81278 44.22746,24.28472 47.07187,27.66911 1.12502,1.33869 1.2237,3.03046 0.26758,4.57747 -0.36372,0.58841 -1.99763,2.27863 -3.63152,3.756 -1.63372,1.47734 -5.78301,5.43195 -9.22055,8.78758 -5.38301,5.25515 -6.46733,6.16197 -7.81902,6.53745 -0.86343,0.23983 -1.92742,0.32508 -2.36501,0.18997 -0.43745,-0.13508 -5.66052,-2.6498 -11.60635,-5.58841 -5.94588,-2.9382 -12.95231,-6.25137 -15.56993,-7.3622 -9.93775,-4.21708 -17.29425,-7.09933 -19.07233,-7.47162 -3.80156,-0.79655 -3.70182,-0.78984 -3.70182,-0.24068 0,0.28569 0.41802,0.84286 0.92887,1.23799 2.8609,2.21266 4.95464,3.71702 11.06418,7.9508 16.37162,11.34562 24.77382,17.2609 26.24971,18.48178 0.87346,0.7222 1.91842,1.84756 2.32188,2.5007 1.03934,1.68114 0.74597,3.41548 -0.92302,5.45685 -0.71354,0.87253 -4.03402,4.78993 -7.37845,8.70531 -3.34457,3.91521 -7.03857,8.29505 -8.20904,9.73311 -3.6959,4.5411 -5.13481,4.89535 -9.38708,2.31082 -1.47087,-0.89382 -3.73835,-2.31192 -5.03867,-3.15116 -11.60209,-7.48623 -30.73697,-18.31085 -42.39838,-23.98483 -3.80912,-1.85331 -8.14202,-3.98884 -9.6285,-4.74563 -1.48643,-0.75669 -4.13687,-2.03111 -5.89047,-2.83146 -2.42433,-1.10713 -3.33453,-1.37699 -3.80067,-1.12756 -1.31163,0.70198 -1.15605,0.87715 8.52268,9.59446 2.68217,2.41566 6.70346,6.14013 8.93707,8.27699 2.23311,2.13673 6.01673,5.70941 8.40756,7.93928 5.89174,5.49456 29.03937,29.50028 29.72601,30.82747 0.67722,1.30958 0.71117,3.52306 0.0721,4.75715 -0.26283,0.50751 -2.05428,3.27468 -3.98141,6.14855 -1.92742,2.87411 -4.58018,7.05019 -5.89552,9.27968 -5.06966,8.59419 -8.88808,15.36526 -10.92355,19.37206 -2.25549,4.4397 -3.22903,5.45359 -5.24248,5.45895 -0.82948,0.002 -1.49458,-0.49999 -3.66471,-2.76578 z m 43.19134,-197.9789 c -1.11467,-0.77255 -5.61442,-4.07537 -9.99901,-7.3394 -4.38445,-3.26394 -10.38279,-7.6828 -13.32978,-9.81956 -2.94648,-2.13681 -6.58037,-4.88569 -8.07477,-6.10839 -4.24656,-3.47482 -9.33246,-7.06695 -10.00554,-7.06695 -1.01505,0 -1.12659,0.70629 -0.2329,1.47327 0.46287,0.39721 1.19955,1.25472 1.63643,1.90506 0.43697,0.65003 2.16764,2.62666 3.8464,4.39163 1.67836,1.76518 4.41977,4.80221 6.0919,6.74915 1.67232,1.9468 4.29476,4.971 5.82758,6.72108 1.53316,1.74988 2.78746,3.38083 2.78746,3.62386 0,0.9236 -0.82139,2.18615 -1.53936,2.36633 -0.41128,0.10217 -2.32323,-0.19653 -4.24925,-0.66602 -5.22012,-1.27234 -23.30303,-4.79181 -26.98169,-5.25111 -1.76517,-0.2206 -4.65343,-0.61157 -6.41887,-0.86937 -7.27564,-1.06143 -14.08846,-1.33883 -33.10762,-1.34756 -19.19328,-0.008 -24.352234,0.21047 -32.263174,1.37136 -5.39043,0.79063 -13.109483,2.12738 -18.489802,3.20111 -2.73699,0.5461 -5.442444,0.99305 -6.011967,0.99305 -1.213917,0 -2.553812,-1.18229 -2.899091,-2.55772 -0.180523,-0.71932 0.125977,-1.6515 1.370043,-4.16765 3.969488,-8.02698 10.994236,-20.32844 15.161949,-26.5513 3.101306,-4.63076 9.446252,-13.41386 12.690229,-17.56746 6.732291,-8.6197 14.107273,-16.87231 22.055643,-24.67926 9.76914,-9.59629 12.04154,-11.60223 22.23748,-19.63191 11.93069,-9.39593 22.70649,-16.55183 36.65516,-24.34151 10.02514,-5.59881 17.51917,-9.16193 29.77614,-14.1574 16.79593,-6.84542 37.80002,-12.8066598 54.68221,-15.5196038 3.90226,-0.627016 8.00695,-1.291909 9.12161,-1.477495 2.72565,-0.453746 14.38375,-1.632091 20.43923,-2.065913 2.69401,-0.19304 6.95097,-0.500863 9.45934,-0.684105 4.76231,-0.34788701 12.22183,-0.18557301 16.55374,0.360128 1.39372,0.175581 5.11816,0.484134 8.27686,0.68571 14.6491,0.934787 31.25758,3.665348 47.29697,7.7760488 32.63885,8.36483 65.92096,24.358 93.41135,44.88716 5.86073,4.37645 15.5801,12.40382 21.95926,18.13679 4.54772,4.08659 12.15917,11.75387 17.07225,17.19802 9.28923,10.29229 17.84007,21.57544 25.65258,33.85066 6.44708,10.129 15.04496,25.91243 15.04496,27.61832 0,0.61091 -0.40372,1.33273 -1.17887,2.10785 -1.09069,1.09074 -1.28636,1.16195 -2.6182,0.9485 -0.79141,-0.12649 -3.41553,-0.66207 -5.83113,-1.19015 -3.96886,-0.86752 -9.734,-1.85041 -18.74995,-3.19793 -8.3515,-1.24817 -10.84297,-1.35395 -31.58766,-1.34587 -20.63302,0.008 -25.06343,0.18386 -34.6279,1.37382 -7.44613,0.92616 -23.08951,3.88827 -30.40509,5.75731 -2.50857,0.64056 -4.8999,1.0806 -5.31461,0.97752 -0.6794,-0.1691 -1.78004,-1.70124 -1.78004,-2.4784 0,-0.169 0.49411,-0.91495 1.09791,-1.65861 1.43212,-1.76236 12.10493,-13.71451 16.64116,-18.63598 3.28641,-3.56512 4.21795,-5.10735 3.08543,-5.10735 -0.25237,0 -1.12677,0.58166 -1.94262,1.29244 -0.81568,0.7108 -2.39558,1.93257 -3.51043,2.71493 -1.11473,0.78222 -2.93889,2.10333 -4.05402,2.93606 -1.11496,0.83272 -4.00306,2.90458 -6.41891,4.60364 -2.41516,1.6994 -7.50831,5.45069 -11.31737,8.33627 -8.83479,6.69231 -16.36572,12.10566 -17.2161,12.37595 -0.84266,0.26726 -1.93281,-0.307 -2.20366,-1.1612 -0.11523,-0.36231 0.0264,-1.08457 0.31884,-1.60506 0.72268,-1.29389 6.66439,-9.38961 13.25948,-18.06601 12.56973,-16.5371 14.63515,-19.27337 18.31575,-24.26588 2.12236,-2.87956 5.0869,-6.71595 6.58786,-8.5263 1.50049,-1.80986 3.31256,-4.06735 4.02674,-5.01672 1.546,-2.05473 2.70276,-4.47936 2.21735,-4.64801 -0.58138,-0.20247 -2.8392,1.49682 -7.00369,5.27074 -2.20343,1.99702 -5.57862,4.99957 -7.50029,6.6717 -1.92178,1.67226 -4.94814,4.39461 -6.72571,6.05003 -1.77743,1.65531 -4.90432,4.48527 -6.94794,6.28853 -2.04393,1.80309 -4.02047,3.62345 -4.39215,4.04482 -0.37145,0.42096 -2.95599,2.83512 -5.74297,5.3639 -2.78715,2.52919 -7.7279,7.03387 -10.97976,10.01083 -7.9468,7.27572 -9.1951,8.36239 -10.25389,8.92633 -0.79703,0.42478 -1.04545,0.41548 -2.07354,-0.0735 -0.66627,-0.31755 -1.25021,-0.8878 -1.35899,-1.32668 -0.26967,-1.08647 0.95834,-4.05838 7.85608,-19.01306 2.31422,-5.01665 4.80406,-10.61479 5.53284,-12.44033 0.72903,-1.82503 2.55973,-5.92976 4.06865,-9.12134 3.04244,-6.43536 4.0662,-8.96849 3.7992,-9.39995 -0.37195,-0.60217 -1.16977,-0.2459 -1.90664,0.85113 -0.42095,0.62683 -1.94593,2.71715 -3.38882,4.64528 -2.77229,3.70502 -11.00408,15.30646 -19.29321,27.19174 -2.73582,3.92253 -5.69544,8.02726 -6.57709,9.12173 -1.37941,1.71211 -1.76033,1.98934 -2.73417,1.98934 -0.81744,0 -1.30813,-0.23757 -1.77135,-0.85742 -0.63625,-0.85223 -0.63242,-0.8864 0.56492,-5.06783 0.66298,-2.31505 1.79621,-6.1098 2.5185,-8.43253 1.46482,-4.71212 3.83275,-12.47533 6.43981,-21.11449 0.95319,-3.15888 2.62983,-8.55594 3.72573,-11.9934 1.59835,-5.01283 4.93387,-16.22566 7.13513,-23.98618 0.30457,-1.07372 0.65321,-2.59269 1.18257,-5.15195 0.27563,-1.33274 -0.54176,-1.19985 -1.52762,0.24845 -0.99222,1.45682 -1.40777,2.18123 -3.89495,6.78934 -1.09455,2.02876 -2.44799,4.44866 -3.00721,5.37746 -1.03261,1.71477 -2.80221,5.028 -11.72968,21.95929 -2.7431,5.20294 -5.70246,10.75164 -6.57661,12.33124 -0.8744,1.57915 -3.46281,6.37062 -5.75282,10.64705 -5.96555,11.14225 -6.73215,12.43827 -7.67492,12.97706 -0.68356,0.39079 -1.03065,0.40479 -1.82869,0.073 -1.70883,-0.70782 -1.8319,-1.2286 -1.46674,-6.20017 0.18138,-2.47081 0.48288,-5.17601 0.6694,-6.01215 0.29663,-1.32743 0.97865,-6.98528 2.03657,-16.89183 0.2933,-2.74798 1.36952,-12.02491 2.05773,-17.73633 0.58555,-4.86081 0.86644,-9.79079 0.57695,-10.12039 -0.43804,-0.49916 -1.12101,0.41424 -2.13644,2.85707 -1.14788,2.76035 -5.56177,16.02469 -11.29812,33.95208 -2.43756,7.61825 -4.69378,14.38353 -5.01404,15.03384 -0.53625,1.08969 -0.7005,1.18249 -2.1014,1.18249 -1.40355,0 -1.56233,-0.089 -2.08438,-1.18249 -0.32535,-0.68143 -0.7137,-2.8291 -0.91575,-5.06743 -0.19325,-2.13692 -0.58747,-5.88807 -0.87682,-8.33605 -0.73579,-6.22907 -1.42249,-12.92425 -2.19379,-21.39359 -0.3638,-3.99478 -0.81461,-8.55574 -1.0019,-10.13492 -0.18721,-1.57958 -0.5018,-4.92398 -0.69924,-7.43229 -0.19761,-2.50848 -0.50782,-5.54915 -0.68939,-6.75687 -0.18191,-1.20779 -0.47648,-3.64025 -0.65481,-5.40546 -0.5575,-5.51675 -1.33934,-11.60031 -1.6656,-12.96342 -0.98741,-4.1208 -2.44307,-1.25518 -2.896,5.70004 -0.20723,3.1853 -0.42887,5.17392 -1.50496,13.51343 -0.35973,2.78702 -0.83142,7.27195 -1.04794,9.96622 -0.41242,5.13015 -1.1849,12.34942 -2.29515,21.45226 -0.36269,2.97297 -0.8372,7.45798 -1.05451,9.96638 -0.21728,2.50824 -0.60323,6.23305 -0.85804,8.27666 -0.25519,2.04401 -0.56378,4.70446 -0.68615,5.91216 -0.29831,2.94475 -0.8188,3.71641 -2.50646,3.71641 -1.01209,0 -1.47699,-0.20111 -1.99805,-0.86334 -0.64647,-0.82182 -4.50447,-12.36006 -11.68506,-34.94726 -1.80128,-5.667 -3.78531,-11.52025 -4.408,-13.00674 -0.6233,-1.48646 -1.18364,-3.00645 -1.24557,-3.37806 -0.0652,-0.39958 -0.425,-0.72018 -0.8771,-0.78495 -0.71901,-0.10166 -0.75209,-0.0202 -0.55736,1.35133 0.11384,0.80347 0.3521,1.93922 0.52959,2.52453 0.17744,0.58494 0.22883,1.43767 0.11406,1.89453 -0.11466,0.45692 -0.0341,2.03075 0.17739,3.49692 0.21215,1.46646 0.51994,4.71716 0.68414,7.22459 0.16432,2.50713 0.45847,5.54771 0.65377,6.75667 0.54314,3.36094 1.60014,12.35757 2.20294,18.75196 0.2977,3.15875 0.68748,6.77216 0.86581,8.02989 0.67347,4.75074 0.26617,6.37217 -1.71737,6.8395 -1.22806,0.28929 -2.43816,-0.78915 -3.91359,-3.4878 -0.67932,-1.24294 -2.78654,-5.07257 -4.68219,-8.50974 -3.58852,-6.5072 -4.84386,-8.83684 -9.466,-17.56772 -1.52445,-2.87975 -3.91269,-7.36446 -5.30744,-9.96587 -1.39423,-2.60153 -3.56884,-6.70619 -4.83174,-9.12148 -1.26313,-2.41551 -2.55548,-4.7722 -2.87185,-5.23641 -0.31653,-0.46466 -1.61061,-2.89703 -2.87643,-5.4055 -1.26564,-2.50825 -2.90643,-5.54904 -3.64619,-6.75677 -0.73946,-1.20772 -1.70489,-2.92399 -2.14485,-3.81412 -0.76337,-1.54411 -1.57918,-2.26163 -2.04311,-1.7973 -0.1184,0.11834 0.10023,1.16328 0.48841,2.32213 0.38689,1.15878 0.97088,3.32311 1.2976,4.80955 0.32633,1.48654 0.9552,3.76694 1.39688,5.06762 0.4419,1.30067 1.64892,5.32913 2.68217,8.95245 1.03359,3.6233 2.91441,9.9323 4.17989,14.02041 1.26598,4.08777 3.85761,12.60112 5.75971,18.91868 1.90228,6.31731 3.8318,12.7024 4.28744,14.18889 1.27476,4.15529 2.09936,7.3561 2.10565,8.17346 0.01,0.87103 -1.16619,1.79291 -2.28159,1.79291 -0.43206,0 -1.1759,-0.4181 -1.65306,-0.92923 -0.47734,-0.51087 -4.11421,-5.56576 -8.08165,-11.23316 -3.96785,-5.66713 -8.6083,-12.20429 -10.31253,-14.5268 -1.70401,-2.32261 -4.12138,-5.74305 -5.37178,-7.60104 -2.09594,-3.115 -3.19225,-4.64928 -6.09563,-8.53056 -1.08057,-1.44469 -2.00847,-1.87223 -2.00847,-0.92512 0,0.28041 0.29233,1.15458 0.64957,1.94227 0.35715,0.78793 1.13576,2.57257 1.73028,3.96619 0.59443,1.3932 1.72852,3.97781 2.52053,5.74278 0.79228,1.76528 3.07018,6.93419 5.06212,11.48678 1.99238,4.55197 4.38091,9.94905 5.30873,11.99286 3.09689,6.82477 6.0124,13.67626 6.00132,14.10379 -0.0224,0.94347 -1.68349,2.28112 -2.8296,2.28112 -0.60647,0 -3.47983,-2.43043 -10.32177,-8.73148 -6.37564,-5.8718 -12.39743,-11.33241 -17.24273,-15.63641 -2.13675,-1.89825 -4.94959,-4.46963 -6.24988,-5.71442 -2.54824,-2.43897 -5.3472,-4.97545 -11.35432,-10.28861 -2.101,-1.85824 -5.4983,-4.98374 -7.55006,-6.94562 -4.46676,-4.27086 -7.73757,-7.07477 -8.25296,-7.07477 -0.624,0 -0.42553,0.90328 0.42166,1.91686 0.43917,0.52493 1.88737,2.55093 3.21859,4.50199 1.33155,1.95108 3.56036,4.99146 4.95365,6.75689 1.39281,1.7649 3.99684,5.24349 5.78606,7.72958 1.78924,2.48586 5.02482,6.81867 7.1908,9.62797 6.53764,8.48023 21.3826,28.28884 22.73358,30.33419 0.69588,1.05348 1.2647,2.13206 1.2647,2.39719 0,0.66951 -1.10377,1.60168 -1.88466,1.59073 -0.35695,-0.005 -1.56124,-0.64054 -2.6761,-1.41312 z m 1.52049,-61.92186 c 0,-0.27888 -0.15229,-0.507 -0.33805,-0.507 -0.1857,0 -0.33763,0.22812 -0.33763,0.507 0,0.27874 0.15193,0.50653 0.33763,0.50653 0.18576,0 0.33805,-0.22779 0.33805,-0.50653 z"
       id="path93" /></g></svg>
